Coordinates
version=1
nRows=10
nColumns=40
inDegrees=yes

Units are S.I. units (second, meters, Newtons, ...)
Angles are in degrees.

endheader
time	pelvis_tilt	pelvis_list	pelvis_rotation	pelvis_tx	pelvis_ty	pelvis_tz	hip_flexion_r	hip_adduction_r	hip_rotation_r	knee_angle_r	knee_angle_r_beta	ankle_angle_r	subtalar_angle_r	mtp_angle_r	hip_flexion_l	hip_adduction_l	hip_rotation_l	knee_angle_l	knee_angle_l_beta	ankle_angle_l	subtalar_angle_l	mtp_angle_l	lumbar_extension	lumbar_bending	lumbar_rotation	arm_flex_r	arm_add_r	arm_rot_r	elbow_flex_r	pro_sup_r	wrist_flex_r	wrist_dev_r	arm_flex_l	arm_add_l	arm_rot_l	elbow_flex_l	pro_sup_l	wrist_flex_l	wrist_dev_l
     11.13000000	     -2.36717979	     -4.65997023	      2.60019303	      0.97742883	      0.90417943	      0.53874829	     19.04232223	      6.91439706	     -4.89111576	     34.50785645	     34.50785645	     19.06112611	    -14.05143802	      1.05504221	     28.05978600	    -13.30935771	      5.92226412	     72.57966690	     72.57966690	      8.72456134	    -18.34361472	     10.81841090	    -10.68370759	      4.15966967	      0.41004150	     14.67785028	    -14.31651643	    -12.01204895	     27.14545412	     46.37588977	      0.00000000	      0.00000000	     10.22532125	     -8.39095756	     -4.52357135	     27.88405861	     45.86216049	      0.00000000	      0.00000000
     11.15235714	     -2.19863213	     -4.87050695	      3.27676281	      0.97644051	      0.90480634	      0.54032735	     18.37311055	      7.31210132	     -5.11036563	     33.95400502	     33.95400502	     19.11691221	    -14.58934762	      1.32702112	     29.01730590	    -13.56307793	      6.03851873	     71.57754648	     71.57754648	     10.02779259	    -19.01628245	     12.17657164	    -10.60233535	      4.20963332	      0.17314208	     17.50917498	    -14.22066058	    -12.02543020	     28.70158682	     46.33595292	      0.00000000	      0.00000000	      7.68309185	     -7.93536861	     -3.99554626	     26.07893625	     45.74022187	      0.00000000	      0.00000000
     11.17471429	     -2.12972746	     -4.93627388	      3.95174590	      0.97519132	      0.90544255	      0.54170244	     17.83624779	      7.48304757	     -5.44866588	     33.46738146	     33.46738146	     19.21193759	    -14.88235457	      1.52127947	     30.19141922	    -13.47046806	      6.20027410	     70.52105407	     70.52105407	     12.94159621	    -19.24699356	     18.00038559	    -10.45156757	      4.11481401	      0.30513197	     20.06710084	    -14.41303436	    -11.70739590	     30.87597979	     46.24338223	      0.00000000	      0.00000000	      5.13093939	     -7.59242443	     -1.77478240	     24.52723101	     45.32217222	      0.00000000	      0.00000000
     11.19707143	     -2.06629129	     -5.05176380	      4.68129109	      0.97372390	      0.90639656	      0.54300807	     17.24184468	      7.70882287	     -5.81649711	     32.81237877	     32.81237877	     19.21290358	    -15.12960719	      1.65031455	     31.16195075	    -13.49490530	      6.23903699	     68.70109776	     68.70109776	     14.36639133	    -19.41021003	     19.72860218	    -10.37904556	      4.10728727	      0.06707228	     22.84750862	    -14.44209255	    -11.45310533	     33.39629513	     46.14200048	      0.00000000	      0.00000000	      2.29712155	     -7.36824495	      0.14138321	     23.50906132	     44.92824589	      0.00000000	      0.00000000
     11.21942857	     -2.08764846	     -5.07321811	      5.36388036	      0.97195666	      0.90746518	      0.54397696	     16.65930198	      7.77259561	     -6.31297245	     31.99873898	     31.99873898	     19.16800782	    -15.16045332	      1.84540851	     32.08992971	    -13.38430028	      6.08835374	     66.43885327	     66.43885327	     15.19740403	    -19.48810039	     19.92612024	    -10.23052098	      3.96407270	      1.08511426	     25.44489153	    -15.32923699	    -11.53649014	     34.64912425	     46.11754482	      0.00000000	      0.00000000	      0.13158970	     -6.76252515	      0.42451468	     22.72690334	     44.83522644	      0.00000000	      0.00000000
     11.24178571	     -1.92488810	     -5.16995039	      6.15491090	      0.97007249	      0.90933286	      0.54463611	     15.65532499	      7.92812591	     -6.92063981	     30.71291197	     30.71291197	     19.01314127	    -14.98742226	      2.06856830	     32.62720474	    -13.14200484	      6.18192021	     63.55091576	     63.55091576	     15.82679632	    -19.49266861	     20.50311675	    -10.41323051	      4.00406153	      0.73927929	     28.61657910	    -15.21048201	    -11.46718260	     37.03090245	     46.03928569	      0.00000000	      0.00000000	     -2.44678637	     -6.45065651	      1.20311822	     21.74142589	     44.63040262	      0.00000000	      0.00000000
     11.26414286	     -2.08726208	     -5.07201886	      6.95471776	      0.96764098	      0.91072378	      0.54474356	     15.16107391	      7.74388504	     -7.63864134	     29.68442607	     29.68442607	     18.45082541	    -14.96643874	      0.94611019	     33.34172680	    -12.48893698	      6.28652246	     60.24476648	     60.24476648	     15.92538631	    -19.47493970	     20.60660059	    -10.33308937	      3.87699052	      1.17720724	     30.47700621	    -16.55034948	     -8.52056224	     41.52129503	     45.71062375	      0.00000000	      0.00000000	     -6.30902131	     -9.05138308	     19.74403934	     26.45883985	     41.19016058	      0.00000000	      0.00000000
     11.28650000	     -2.30137227	     -4.93245922	      7.72256179	      0.96499578	      0.91240162	      0.54450053	     14.69803782	      7.47509861	     -8.40697711	     28.64617651	     28.64617651	     18.30681575	    -14.50274585	      1.12911771	     33.80132019	    -11.71303148	      6.39347995	     56.35019457	     56.35019457	     15.14052492	    -19.41017617	     19.38005944	    -10.25043982	      3.69517536	      1.36305941	     33.36744199	    -16.89228002	     -9.34676243	     43.84876748	     45.68588344	      0.00000000	      0.00000000	     -8.70105548	     -8.97014766	     20.52303629	     27.19760079	     41.20555659	      0.00000000	      0.00000000
     11.30885714	     -2.53445705	     -4.74398724	      8.51216037	      0.96217480	      0.91414840	      0.54387691	     14.20658044	      7.13061330	     -9.21994525	     27.50214410	     27.50214410	     18.00712615	    -14.01743513	      0.97047742	     33.99466888	    -10.81163340	      6.54800376	     51.98944005	     51.98944005	     13.61477875	    -19.28169294	     17.12129392	    -10.19449784	      3.48520940	      1.58885870	     36.13682135	    -17.52252663	     -9.28182351	     46.32602109	     45.61222123	      0.00000000	      0.00000000	    -10.94208442	     -9.10135996	     21.88881318	     28.41214979	     41.17537498	      0.00000000	      0.00000000
     11.33121429	     -2.81264197	     -4.55309089	      9.29335806	      0.95926386	      0.91583120	      0.54288917	     13.75514277	      6.76355004	    -10.02715929	     26.35058335	     26.35058335	     17.66896367	    -13.51675628	      0.65761710	     33.98570427	     -9.87710045	      6.77449134	     47.29965141	     47.29965141	     11.46396466	    -19.03452958	     14.18985024	    -10.12062832	      3.28955925	      1.81400990	     38.87608952	    -18.31382331	     -8.79586774	     48.76349752	     45.52563402	      0.00000000	      0.00000000	    -12.91559973	     -9.32332252	     23.69843289	     29.68092527	     41.15461833	      0.00000000	      0.00000000
